<svg xmlns="http://www.w3.org/2000/svg" width="63" height="63" viewBox="0 0 63 63"><defs><style>.a{fill:#f5f5f5;}.b{fill:#b9b9b9;}</style></defs><g transform="translate(-0.281)"><circle class="a" cx="31.5" cy="31.5" r="31.5" transform="translate(0.281)"/><g transform="translate(13.28 12.84)"><rect class="b" width="26.38" height="26.38" rx="4" transform="translate(5 5.332)"/><path class="a" d="M20,15H17V12a1,1,0,0,0-2,0v3H12a1,1,0,0,0,0,2h3v3a1,1,0,0,0,2,0V17h3a1,1,0,0,0,0-2Z" transform="translate(2.461 2.25)"/><path class="a" d="M20,15H17V12a1,1,0,0,0-1-1V21a1,1,0,0,0,1-1V17h3a1,1,0,0,0,0-2Z" transform="translate(2.14 2.25)"/></g></g></svg>