<svg xmlns="http://www.w3.org/2000/svg" width="63" height="63" viewBox="0 0 63 63"><defs><style>.a{fill:#f5f5f5;}.b{fill:#b9b9b9;}</style></defs><g transform="translate(-0.281)"><circle class="a" cx="31.5" cy="31.5" r="31.5" transform="translate(0.281)"/><g transform="translate(13.768 12.771)"><path class="b" d="M30.825,17.533a9.543,9.543,0,0,0,2.935-3.928,12.912,12.912,0,0,1,.642,4.18,12.436,12.436,0,0,1-2.648,7.969,10.994,10.994,0,0,1-1.842,1.818c-.1.077-.194.147-.282.209V30.27a3.579,3.579,0,0,1-3.579,3.579H24.859a2.386,2.386,0,0,1-2.386-2.386H17.7a2.386,2.386,0,0,1-2.386,2.386H14.122a3.579,3.579,0,0,1-3.579-3.579v-.509c-.206-.066-.437-.147-.686-.247A9.924,9.924,0,0,1,6.513,27.29a11.958,11.958,0,0,1-2.6-4.348,1.025,1.025,0,0,0-.643-.671,3.117,3.117,0,0,1-2.269-3V17.377a3.078,3.078,0,0,1,2.232-2.959,1.047,1.047,0,0,0,.646-.709,9.253,9.253,0,0,1,2.077-3.558,13.875,13.875,0,0,1,2.693-2.1c.231-.139.441-.257.624-.355V3.218a1.812,1.812,0,0,1,1.147-1.68,1.848,1.848,0,0,1,1.97.359A16.75,16.75,0,0,0,14.632,3.7a5.692,5.692,0,0,0,2.351,1H17a9.565,9.565,0,0,0-1.57,6.453,5.866,5.866,0,0,0,3.781,4.588l5.7,2.36A5.866,5.866,0,0,0,30.825,17.533ZM9.947,15.954a1.789,1.789,0,1,0-1.789-1.789A1.789,1.789,0,0,0,9.947,15.954Z" transform="translate(0 0)"/><path class="b" d="M8.523,6.548a7.158,7.158,0,1,1,11.1,8.25,3.5,3.5,0,0,1-3.527.24l-5.7-2.36a3.5,3.5,0,0,1-2.324-2.663,7.116,7.116,0,0,1,.021-1.826Zm0,0L8.2,7.595q.075-.331.182-.652Q8.446,6.743,8.523,6.548Z" transform="translate(9.727 0.862)"/></g></g></svg>