<svg xmlns="http://www.w3.org/2000/svg" width="28.246" height="24.637" viewBox="0 0 28.246 24.637"><defs><style>.a{fill:#b9b9b9;}</style></defs><path class="a" d="M13.879,22.291V11.346a2.821,2.821,0,0,1,2.9-2.74H30.155V7.24A2.81,2.81,0,0,0,27.283,4.5H6.363A2.865,2.865,0,0,0,3.375,7.195V26.442a2.865,2.865,0,0,0,2.988,2.695H27.276a2.806,2.806,0,0,0,2.872-2.74V25.03H16.772A2.819,2.819,0,0,1,13.879,22.291Z" transform="translate(-3.375 -4.5)"/><path class="a" d="M17.227,12.98v8.982a1.061,1.061,0,0,0,1.086,1.027h12.7A1.061,1.061,0,0,0,32.1,21.962V12.98a1.061,1.061,0,0,0-1.086-1.027h-12.7A1.061,1.061,0,0,0,17.227,12.98Zm5.235,6.538a2.058,2.058,0,1,1,2.03-1.918A2.116,2.116,0,0,1,22.462,19.517Z" transform="translate(-3.85 -5.152)"/></svg>